# xmcd
#
# Track frame offsets: 
#        150
#        15211
#        27107
#        48105
#        63439
#        78441
#        92314
#        114273
#        124567
#        144886
#        162125
#
# Disc length: 2481 seconds
#
# Revision: 0
# Processed by: cddbd v1.5.1PL0 Copyright (c) Steve Scherf et al.
# Submitted via: ExactAudioCopy v0.95a5
#
DISCID=6c09af0b
DTITLE=Mark Jackson - Vigilante Road
DYEAR=2002
DGENRE=Country
TTITLE0=Desert Wind
TTITLE1=Save Me From This Heartache
TTITLE2=Charlette Texas
TTITLE3=Last Exit To Lakeside
TTITLE4=Borrowed Time
TTITLE5=My Heart's On Fire
TTITLE6=Cold Night In Heaven
TTITLE7=Velvet Heartache
TTITLE8=Lost Time On The Old Highway
TTITLE9=Angels In The Sky
TTITLE10=Down To Earth
EXTD=
EXTT0=
EXTT1=
EXTT2=
EXTT3=
EXTT4=
EXTT5=
EXTT6=
EXTT7=
EXTT8=
EXTT9=
EXTT10=
PLAYORDER=
